<?xml version="1.0"?>
<svg xmlns="http://www.w3.org/2000/svg" xmlns:xlink="http://www.w3.org/1999/xlink" xmlns:svgjs="http://svgjs.com/svgjs" version="1.1" width="512" height="512" x="0" y="0" viewBox="0 0 512 512" style="enable-background:new 0 0 512 512" xml:space="preserve" class=""><g><g xmlns="http://www.w3.org/2000/svg" id="Outline"><path d="m392 16h-272a104.118 104.118 0 0 0 -104 104v272a104.118 104.118 0 0 0 104 104h272a104.118 104.118 0 0 0 104-104v-272a104.118 104.118 0 0 0 -104-104zm88 376a88.1 88.1 0 0 1 -88 88h-272a88.1 88.1 0 0 1 -88-88v-272a88.1 88.1 0 0 1 88-88h272a88.1 88.1 0 0 1 88 88z" fill="#06d56d" data-original="#000000" style="" class=""/><path d="m192.06 367.733-.048 32.267h207.988v-288h-207.988l.046 32.267-16 .023-.058-40.279a8 8 0 0 1 8-8.011h224a8 8 0 0 1 8 8v304a8 8 0 0 1 -8 8h-224a8 8 0 0 1 -8-8.012l.06-40.278z" fill="#06d56d" data-original="#000000" style="" class=""/><path d="m258.343 181.657 11.314-11.314 80 80a8 8 0 0 1 0 11.314l-80 80-11.314-11.314 66.344-66.343h-228.687v-16h228.687z" fill="#06d56d" data-original="#000000" style="" class=""/></g></g></svg>
